# xmcd
#
# Track frame offsets:
#	150
#	17577
#	39835
#	58790
#	68142
#	84172
#	108077
#	128477
#	160425
#	178912
#	195275
#	206280
#
# Disc length: 2966 seconds
#
# Revision: 0
# Processed by: cddbd v1.5.1PL2 Copyright (c) Steve Scherf et al.
# Submitted via: EasyCDDAExtractor 9.0.0.1
#
DISCID=8d0b940c
DTITLE=The Sweet - Nakano Sun Plaza Hall 19-08-76 Disc 1
DYEAR=1976
DGENRE=Glam Rock
TTITLE0=Ballroom Blitz
TTITLE1=Yesterday's Rain
TTITLE2=Rock and Roll Disgrace
TTITLE3=Burning/Someone Else
TTITLE4=Blockbuster
TTITLE5=Restless
TTITLE6=Cockroach
TTITLE7=Healer
TTITLE8=AC/DC
TTITLE9=Burn On The Flame
TTITLE10=Keep It On
TTITLE11=Action
EXTD=
EXTT0=
EXTT1=
EXTT2=
EXTT3=
EXTT4=
EXTT5=
EXTT6=
EXTT7=
EXTT8=
EXTT9=
EXTT10=
EXTT11=
PLAYORDER=
